HIERARCHY
ROOT Hips
{
	OFFSET 0.00000 0.00000 0.00000
	CHANNELS 6 Xposition Yposition Zposition Zrotation Yrotation Xrotation 
	JOINT LHipJoint
	{
		OFFSET 0 0 0
		CHANNELS 3 Zrotation Yrotation Xrotation
		JOINT LeftUpLeg
		{
			OFFSET 1.40252 -1.71424 0.59123
			CHANNELS 3 Zrotation Yrotation Xrotation
			JOINT LeftLeg
			{
				OFFSET 2.50071 -6.87065 0.00000
				CHANNELS 3 Zrotation Yrotation Xrotation
				JOINT LeftFoot
				{
					OFFSET 2.50834 -6.89162 0.00000
					CHANNELS 3 Zrotation Yrotation Xrotation
					JOINT LeftToeBase
					{
						OFFSET 0.21528 -0.59149 1.64448
						CHANNELS 3 Zrotation Yrotation Xrotation
						End Site
						{
							OFFSET 0.00000 -0.00000 0.87921
						}
					}
				}
			}
		}
	}
	JOINT RHipJoint
	{
		OFFSET 0 0 0
		CHANNELS 3 Zrotation Yrotation Xrotation
		JOINT RightUpLeg
		{
			OFFSET -1.53651 -1.71424 0.59123
			CHANNELS 3 Zrotation Yrotation Xrotation
			JOINT RightLeg
			{
				OFFSET -2.45783 -6.75285 0.00000
				CHANNELS 3 Zrotation Yrotation Xrotation
				JOINT RightFoot
				{
					OFFSET -2.51921 -6.92147 0.00000
					CHANNELS 3 Zrotation Yrotation Xrotation
					JOINT RightToeBase
					{
						OFFSET -0.21777 -0.59831 1.59676
						CHANNELS 3 Zrotation Yrotation Xrotation
						End Site
						{
							OFFSET -0.00000 -0.00000 0.85779
						}
					}
				}
			}
		}
	}
	JOINT LowerBack
	{
		OFFSET 0 0 0
		CHANNELS 3 Zrotation Yrotation Xrotation
		JOINT Spine
		{
			OFFSET 0.02212 2.07622 0.03776
			CHANNELS 3 Zrotation Yrotation Xrotation
			JOINT Spine1
			{
				OFFSET -0.00949 2.08009 -0.00123
				CHANNELS 3 Zrotation Yrotation Xrotation
				JOINT Neck
				{
					OFFSET 0 0 0
					CHANNELS 3 Zrotation Yrotation Xrotation
					JOINT Neck1
					{
						OFFSET 0.00288 1.67184 0.11155
						CHANNELS 3 Zrotation Yrotation Xrotation
						JOINT Head
						{
							OFFSET -0.02412 1.66997 -0.22040
							CHANNELS 3 Zrotation Yrotation Xrotation
							End Site
							{
								OFFSET -0.01026 1.69043 -0.08683
							}
						}
					}
				}
				JOINT LeftShoulder
				{
					OFFSET 0 0 0
					CHANNELS 3 Zrotation Yrotation Xrotation
					JOINT LeftArm
					{
						OFFSET 3.97941 0.74048 0.81462
						CHANNELS 3 Zrotation Yrotation Xrotation
						JOINT LeftForeArm
						{
							OFFSET 5.01834 -0.00000 -0.00000
							CHANNELS 3 Zrotation Yrotation Xrotation
							JOINT LeftHand
							{
								OFFSET 3.48690 -0.00000 0.00000
								CHANNELS 3 Zrotation Yrotation Xrotation
								JOINT LeftFingerBase
								{
									OFFSET 0 0 0
									CHANNELS 3 Zrotation Yrotation Xrotation
									JOINT LeftHandIndex1
									{
										OFFSET 0.76799 -0.00000 0.00000
										CHANNELS 3 Zrotation Yrotation Xrotation
										End Site
										{
											OFFSET 0.61917 -0.00000 0.00000
										}
									}
								}
								JOINT LThumb
								{
									OFFSET 0 0 0
									CHANNELS 3 Zrotation Yrotation Xrotation
									End Site
									{
										OFFSET 0.62863 -0.00000 0.62863
									}
								}
							}
						}
					}
				}
				JOINT RightShoulder
				{
					OFFSET 0 0 0
					CHANNELS 3 Zrotation Yrotation Xrotation
					JOINT RightArm
					{
						OFFSET -3.88702 1.02123 0.44091
						CHANNELS 3 Zrotation Yrotation Xrotation
						JOINT RightForeArm
						{
							OFFSET -4.70164 -0.00000 0.00000
							CHANNELS 3 Zrotation Yrotation Xrotation
							JOINT RightHand
							{
								OFFSET -3.49911 -0.00000 0.00000
								CHANNELS 3 Zrotation Yrotation Xrotation
								JOINT RightFingerBase
								{
									OFFSET 0 0 0
									CHANNELS 3 Zrotation Yrotation Xrotation
									JOINT RightHandIndex1
									{
										OFFSET -0.73933 -0.00000 0.00000
										CHANNELS 3 Zrotation Yrotation Xrotation
										End Site
										{
											OFFSET -0.59607 -0.00000 0.00000
										}
									}
								}
								JOINT RThumb
								{
									OFFSET 0 0 0
									CHANNELS 3 Zrotation Yrotation Xrotation
									End Site
									{
										OFFSET -0.60517 -0.00000 0.60517
									}
								}
							}
						}
					}
				}
			}
		}
	}
}
MOTION
Frames: 10
Frame Time: .0083333
7.9642 16.9457 6.7850 -179.8890 -50.1041 190.3470 0.0000 0.0000 0.0000 -10.3866 -3.1477 -31.3926 2.7490 10.2772 29.8791 0.5711 2.4478 -15.3729 0.2530 -3.2362 -8.9372 0.0000 0.0000 0.0000 6.8728 -0.6298 -13.1998 -3.5976 -11.6048 34.3480 -0.3988 -13.1580 -22.9036 -0.0305 1.1271 -3.0986 0.5879 -3.8391 -0.8936 0.0212 -5.1288 -0.7415 -0.3347 -2.5697 -0.3095 5.5234 9.8426 -9.0521 -8.5914 13.8759 19.1937 -2.3158 5.9828 8.4558 -0.0000 0.0000 0.0000 -82.9824 -26.8425 31.6017 56.1797 -55.2029 -31.1825 -0.0000 0.0000 -74.5833 27.5264 43.5839 19.7629 -7.1250 0.0000 -0.0000 -20.5219 76.2529 -15.1858 -0.0000 0.0000 0.0000 89.2065 -2.8495 57.3910 -112.7988 57.9419 -79.6079 0.0000 0.0000 23.1853 -47.3231 -0.7340 0.7960 7.1250 -0.0000 -0.0000 -16.3641 -30.8032 -5.8912
8.0487 16.9256 6.7437 -179.5410 -51.7944 190.5710 0.0000 0.0000 0.0000 -9.6910 -4.1174 -32.5342 2.8475 10.4439 30.4267 0.5754 1.7173 -15.0528 0.2935 -3.4835 -9.6278 0.0000 0.0000 0.0000 7.4970 -0.9399 -13.1538 -3.5423 -11.5250 34.0717 -0.4149 -13.2197 -23.1217 -0.2240 3.0463 -8.4077 0.8050 -4.0044 -1.2063 0.0956 -5.3556 -0.9099 -0.3957 -2.6858 -0.3225 5.5759 9.7150 -9.2014 -8.4934 13.6736 18.9828 -2.3100 5.9143 8.3920 -0.0000 0.0000 0.0000 -81.8495 -29.2291 29.7699 52.0773 -53.7997 -27.8419 -0.0000 0.0000 -75.0450 26.7594 44.4888 19.4615 -7.1250 0.0000 -0.0000 -23.8966 76.7224 -17.9653 -0.0000 0.0000 0.0000 90.1990 -1.4254 59.5084 -109.6142 58.4952 -76.9005 0.0000 0.0000 24.5397 -47.9015 -1.8829 2.0827 7.1250 -0.0000 -0.0000 -17.0961 -32.4379 -5.4717
8.1388 16.9057 6.6959 -178.8430 -53.2837 190.2760 0.0000 0.0000 0.0000 -8.8046 -4.8851 -33.4040 2.9404 10.5980 30.9357 0.5635 1.3384 -14.7272 0.4052 -4.0865 -11.3200 0.0000 0.0000 0.0000 8.4580 -1.2717 -12.8760 -3.4653 -11.4126 33.6844 -0.5261 -12.8709 -23.7363 -0.4255 4.1864 -11.6017 1.0445 -4.0535 -1.2144 0.2564 -5.4242 -1.0498 -0.3583 -2.7228 -0.4689 5.4114 9.5296 -9.3132 -8.1947 13.3866 18.7721 -2.2180 5.8104 8.2846 0.0000 0.0000 0.0000 -80.7642 -31.4991 28.0169 48.4434 -52.3481 -24.9364 -0.0000 0.0000 -75.1752 26.0023 45.2574 19.1092 -7.1250 0.0000 -0.0000 -27.0713 77.0477 -20.5920 0.0000 0.0000 0.0000 91.2046 -0.0951 61.4881 -106.5245 58.9427 -74.2598 0.0000 0.0000 25.5074 -48.3081 -2.6618 2.9846 7.1250 -0.0000 -0.0000 -17.6189 -33.5609 -5.1511
8.2449 16.8912 6.6220 -177.8880 -53.8199 189.5920 0.0000 0.0000 0.0000 -7.7515 -4.6646 -33.9765 2.9948 10.6866 31.2301 0.5404 1.2333 -14.3871 0.5821 -4.8853 -13.5817 0.0000 0.0000 0.0000 9.6750 -1.0264 -12.5303 -3.3945 -11.3078 33.3250 -0.6832 -12.2191 -24.4151 -0.5325 4.6760 -12.9868 0.7200 -3.7467 -1.1733 0.5678 -5.0116 -1.0074 0.1394 -2.5131 -0.3868 5.1936 9.2412 -9.5664 -8.0116 12.9837 18.3975 -2.1640 5.6418 8.1461 0.0000 0.0000 0.0000 -79.7846 -34.0026 26.1268 45.0321 -50.7842 -22.2636 -0.0000 0.0000 -75.1084 25.8476 45.3841 19.0264 -7.1250 0.0000 -0.0000 -27.6463 77.0856 -21.0624 0.0000 0.0000 0.0000 92.1730 1.6078 63.3200 -103.6141 59.2880 -71.7620 0.0000 0.0000 25.9909 -49.1817 -3.0201 3.4906 7.1250 -0.0000 -0.0000 -18.4205 -34.1110 -5.1481
8.3440 16.8691 6.5599 -177.0950 -54.7224 189.2250 0.0000 0.0000 0.0000 -6.7280 -5.0449 -34.9565 3.1134 10.8764 31.8641 0.5288 0.9745 -14.1235 0.6434 -5.1314 -14.2836 0.0000 0.0000 0.0000 10.7510 -1.5045 -12.6987 -3.3372 -11.2218 33.0318 -0.7900 -12.1861 -25.2641 -0.6869 5.2986 -14.7621 0.6647 -3.5252 -1.4447 0.7408 -4.7198 -0.9192 0.3252 -2.3661 -0.1249 5.2077 8.9870 -10.1021 -7.9710 12.6247 18.1666 -2.1727 5.4830 8.1374 0.0000 -0.0000 0.0000 -78.5330 -36.7275 24.0581 41.8511 -49.1291 -19.8279 -0.0000 0.0000 -75.2133 25.9412 44.7666 18.9103 -7.1250 0.0000 -0.0000 -25.7862 76.6286 -19.3713 0.0000 -0.0000 0.0000 93.3855 3.6469 64.9371 -100.8170 59.5532 -69.3537 0.0000 0.0000 25.9171 -50.2959 -3.6122 4.3391 7.1250 -0.0000 -0.0000 -19.5017 -35.0329 -5.0179
8.4392 16.8395 6.4873 -176.1590 -55.2501 188.6290 0.0000 0.0000 0.0000 -5.6367 -4.7510 -35.9205 3.2390 11.0722 32.5238 0.5312 0.3332 -13.8949 0.5565 -4.7787 -13.2783 0.0000 0.0000 0.0000 11.8587 -2.1700 -12.9875 -3.3016 -11.1679 32.8483 -0.8722 -12.4608 -26.1775 -0.9862 6.3208 -17.7181 0.6664 -3.1829 -1.6320 0.8284 -4.2668 -0.8739 0.4057 -2.1393 0.0324 5.2137 8.7797 -10.5215 -7.6858 12.2885 18.0719 -2.1028 5.3544 8.1375 -0.0000 0.0000 0.0000 -76.9863 -39.2193 21.8033 39.1207 -47.5403 -17.7878 -0.0000 0.0000 -75.1895 25.5838 44.4102 18.5229 -7.1250 0.0000 -0.0000 -25.3395 76.1989 -18.8055 -0.0000 0.0000 0.0000 95.0482 5.4721 66.1647 -97.7632 59.7710 -66.7180 0.0000 0.0000 25.6015 -51.3090 -4.6600 5.7922 7.1250 -0.0000 -0.0000 -20.6799 -36.6575 -4.4817
8.5212 16.8056 6.4398 -175.4070 -56.4806 188.1180 0.0000 0.0000 0.0000 -4.8062 -5.0489 -37.0371 3.4049 11.3233 33.3780 0.5303 -0.5886 -13.5669 0.4367 -4.2404 -11.7541 0.0000 0.0000 0.0000 12.7242 -3.9079 -13.5177 -3.2812 -11.1369 32.7430 -0.9687 -12.5372 -26.9830 -1.2260 7.0226 -19.7823 0.9643 -3.0432 -1.5447 0.8573 -4.0841 -0.9892 0.2826 -2.0505 -0.1536 5.2149 8.5214 -10.7144 -7.3663 11.8746 17.9798 -2.0407 5.1957 8.0908 0.0000 -0.0000 0.0000 -75.4714 -41.3748 19.7618 36.7201 -46.0020 -16.0383 -0.0000 0.0000 -74.8140 25.1911 43.9159 18.0690 -7.1250 0.0000 -0.0000 -24.6430 75.6390 -17.9926 0.0000 -0.0000 0.0000 96.7616 7.1212 67.0200 -94.4117 59.9263 -63.8197 0.0000 0.0000 25.0612 -52.4149 -5.5914 7.2146 7.1250 -0.0000 -0.0000 -21.9569 -38.1637 -3.9249
8.5972 16.7691 6.3868 -174.7910 -57.6819 187.6100 0.0000 0.0000 0.0000 -4.1561 -5.2200 -37.9815 3.5508 11.5374 34.1146 0.5268 -1.4446 -13.2884 0.3486 -3.7935 -10.4965 0.0000 0.0000 0.0000 13.5254 -5.4932 -13.8619 -3.2592 -11.1032 32.6289 -1.0468 -12.7402 -27.7435 -1.3385 7.3254 -20.6831 0.9323 -2.9015 -1.3145 1.0305 -3.8922 -1.1255 0.4971 -1.9559 -0.4073 5.2072 8.2727 -10.9011 -7.3386 11.5295 17.8798 -2.0647 5.0386 8.0649 -0.0000 0.0000 0.0000 -74.1787 -43.3413 18.0135 34.5485 -44.4870 -14.4960 -0.0000 0.0000 -73.9724 24.5856 43.7500 17.5568 -7.1250 0.0000 -0.0000 -25.0677 75.2714 -18.1207 -0.0000 0.0000 0.0000 98.0861 8.9492 67.6885 -90.6932 59.9982 -60.6003 0.0000 0.0000 24.3844 -52.8691 -5.4137 7.1030 7.1250 -0.0000 -0.0000 -22.2850 -37.9468 -4.1184
8.6677 16.7243 6.3304 -174.0430 -58.5622 187.0970 0.0000 0.0000 0.0000 -3.4562 -5.0685 -39.0349 3.6991 11.7489 34.8494 0.5288 -2.1639 -13.1629 0.2690 -3.3366 -9.2174 0.0000 0.0000 0.0000 14.3769 -6.6221 -14.3566 -3.2828 -11.1394 32.7513 -1.1225 -12.8989 -28.4274 -1.4572 7.6299 -21.5954 1.0004 -2.7482 -1.3783 1.1928 -3.6915 -1.2172 0.6262 -1.8572 -0.4595 5.0857 8.1119 -11.0749 -7.2381 11.3097 17.7447 -2.0329 4.9412 8.0224 0.0000 -0.0000 0.0000 -72.5448 -45.2130 15.8435 32.6332 -43.0462 -13.1710 -0.0000 0.0000 -72.7459 23.4928 44.3351 16.8970 -7.1250 0.0000 -0.0000 -27.9273 75.3344 -20.2908 0.0000 -0.0000 0.0000 99.4464 10.9458 68.5673 -86.8522 59.9625 -57.2742 0.0000 0.0000 23.9808 -53.4840 -6.0601 8.1151 7.1250 -0.0000 -0.0000 -23.0788 -39.0071 -3.6382
8.7312 16.6739 6.2770 -173.4000 -59.5284 186.7310 0.0000 0.0000 0.0000 -2.8822 -4.9588 -40.2439 3.8758 11.9933 35.7083 0.5270 -2.9847 -13.0166 0.1962 -2.8524 -7.8680 0.0000 0.0000 0.0000 15.1112 -7.6599 -14.9549 -3.3425 -11.2299 33.0592 -1.2255 -12.8407 -29.0886 -1.5489 7.8554 -22.2759 1.1917 -2.6047 -1.6885 1.1976 -3.5096 -1.2235 0.5107 -1.7677 -0.3042 5.1091 7.9060 -11.2661 -7.1075 10.9931 17.5076 -2.0253 4.8153 7.9499 -0.0000 -0.0000 0.0000 -70.5518 -47.1001 13.6132 31.0032 -41.7379 -12.0720 -0.0000 0.0000 -71.6316 23.5152 44.1867 16.8717 -7.1250 0.0000 -0.0000 -27.5301 75.2233 -19.9299 -0.0000 -0.0000 0.0000 101.0169 13.1460 69.2442 -82.7644 59.8012 -53.7379 0.0000 0.0000 23.6886 -53.9253 -6.5999 8.9653 7.1250 -0.0000 -0.0000 -23.6993 -39.8947 -3.1917
